<svg xmlns="http://www.w3.org/2000/svg" viewBox="0 0 128 128">
  <defs>
    <linearGradient id="grad" x1="0%" y1="0%" x2="100%" y2="100%">
      <stop offset="0%" style="stop-color:#667eea;stop-opacity:1" />
      <stop offset="100%" style="stop-color:#764ba2;stop-opacity:1" />
    </linearGradient>
  </defs>
  
  <!-- Background Circle -->
  <circle cx="64" cy="64" r="60" fill="url(#grad)"/>
  
  <!-- Calculator Symbol -->
  <g transform="translate(35, 25)">
    <rect x="0" y="0" width="58" height="78" rx="6" fill="white" opacity="0.9"/>
    
    <!-- Display -->
    <rect x="6" y="6" width="46" height="18" rx="3" fill="#673ab7" opacity="0.3"/>
    
    <!-- Buttons Grid -->
    <g transform="translate(6, 30)">
      <!-- Row 1 -->
      <rect x="0" y="0" width="10" height="8" rx="2" fill="#673ab7" opacity="0.5"/>
      <rect x="12" y="0" width="10" height="8" rx="2" fill="#673ab7" opacity="0.5"/>
      <rect x="24" y="0" width="10" height="8" rx="2" fill="#673ab7" opacity="0.5"/>
      <rect x="36" y="0" width="10" height="8" rx="2" fill="#764ba2" opacity="0.7"/>
      
      <!-- Row 2 -->
      <rect x="0" y="10" width="10" height="8" rx="2" fill="#673ab7" opacity="0.5"/>
      <rect x="12" y="10" width="10" height="8" rx="2" fill="#673ab7" opacity="0.5"/>
      <rect x="24" y="10" width="10" height="8" rx="2" fill="#673ab7" opacity="0.5"/>
      <rect x="36" y="10" width="10" height="8" rx="2" fill="#764ba2" opacity="0.7"/>
      
      <!-- Row 3 -->
      <rect x="0" y="20" width="10" height="8" rx="2" fill="#673ab7" opacity="0.5"/>
      <rect x="12" y="20" width="10" height="8" rx="2" fill="#673ab7" opacity="0.5"/>
      <rect x="24" y="20" width="10" height="8" rx="2" fill="#673ab7" opacity="0.5"/>
      <rect x="36" y="20" width="10" height="8" rx="2" fill="#764ba2" opacity="0.7"/>
      
      <!-- Row 4 -->
      <rect x="0" y="30" width="22" height="8" rx="2" fill="#673ab7" opacity="0.5"/>
      <rect x="24" y="30" width="10" height="8" rx="2" fill="#673ab7" opacity="0.5"/>
      <rect x="36" y="30" width="10" height="8" rx="2" fill="#667eea" opacity="0.8"/>
    </g>
  </g>
  
  <!-- Clock/Stopwatch Symbol (smaller, in corner) -->
  <g transform="translate(75, 75)">
    <circle cx="0" cy="0" r="18" fill="white" opacity="0.9"/>
    <circle cx="0" cy="0" r="15" fill="none" stroke="#764ba2" stroke-width="2"/>
    <line x1="0" y1="0" x2="0" y2="-8" stroke="#764ba2" stroke-width="2" stroke-linecap="round"/>
    <line x1="0" y1="0" x2="6" y2="3" stroke="#764ba2" stroke-width="2" stroke-linecap="round"/>
    <circle cx="0" cy="0" r="2" fill="#764ba2"/>
  </g>
</svg>
